<svg width="191" height="85" viewBox="0 0 191 85" fill="none" xmlns="http://www.w3.org/2000/svg">
<path d="M182.961 82.1474C182.558 82.1474 182.165 82.113 181.782 82.0442C181.408 81.9754 181.064 81.882 180.75 81.7641C180.435 81.6363 180.16 81.4791 179.924 81.2924L180.396 80.0835C180.642 80.2407 180.907 80.3783 181.192 80.4963C181.477 80.6142 181.772 80.7027 182.077 80.7616C182.381 80.8206 182.681 80.8501 182.976 80.8501C183.448 80.8501 183.796 80.7715 184.023 80.6142C184.258 80.4471 184.376 80.2309 184.376 79.9656C184.376 79.7395 184.298 79.5675 184.14 79.4496C183.993 79.3218 183.767 79.2284 183.462 79.1695L181.988 78.8894C181.379 78.7714 180.912 78.5503 180.588 78.226C180.273 77.8918 180.116 77.4643 180.116 76.9434C180.116 76.4716 180.244 76.0638 180.499 75.7198C180.764 75.3758 181.128 75.1105 181.59 74.9237C182.052 74.737 182.583 74.6436 183.182 74.6436C183.526 74.6436 183.86 74.678 184.185 74.7468C184.509 74.8058 184.814 74.8991 185.099 75.0269C185.394 75.1449 185.649 75.3021 185.865 75.4987L185.364 76.7075C185.177 76.5503 184.961 76.4176 184.715 76.3095C184.47 76.1915 184.214 76.1031 183.949 76.0441C183.693 75.9753 183.443 75.9409 183.197 75.9409C182.715 75.9409 182.357 76.0245 182.121 76.1915C181.895 76.3586 181.782 76.5798 181.782 76.8549C181.782 77.0613 181.851 77.2333 181.988 77.3709C182.126 77.5085 182.337 77.6019 182.622 77.651L184.096 77.9311C184.735 78.0491 185.217 78.2653 185.541 78.5798C185.875 78.8943 186.042 79.3169 186.042 79.8476C186.042 80.3292 185.914 80.742 185.659 81.086C185.403 81.4299 185.045 81.6953 184.583 81.882C184.121 82.059 183.58 82.1474 182.961 82.1474Z" fill="#FFD166"/>
<path d="M177.23 82.1474C176.266 82.1474 175.549 81.9066 175.077 81.425C174.605 80.9435 174.37 80.2407 174.37 79.3169V76.1768H172.984V74.791H174.37V72.6387H176.212V74.791H178.394V76.1768H176.212V79.2137C176.212 79.6855 176.316 80.0393 176.522 80.2751C176.728 80.511 177.062 80.629 177.524 80.629C177.662 80.629 177.804 80.6142 177.952 80.5847C178.099 80.5454 178.252 80.5061 178.409 80.4668L178.689 81.8231C178.512 81.9214 178.286 82 178.011 82.0589C177.746 82.1179 177.485 82.1474 177.23 82.1474Z" fill="#FFD166"/>
<path d="M171.176 82.1474C170.321 82.1474 169.687 81.9165 169.274 81.4546C168.871 80.9828 168.67 80.2948 168.67 79.3906V71.6068H170.512V79.3022C170.512 79.5872 170.552 79.8329 170.63 80.0393C170.719 80.2359 170.847 80.3833 171.014 80.4816C171.181 80.5798 171.387 80.629 171.633 80.629C171.741 80.629 171.849 80.6241 171.957 80.6142C172.065 80.6044 172.168 80.5848 172.267 80.5553L172.237 82.0148C172.06 82.0541 171.883 82.0836 171.706 82.1032C171.539 82.1327 171.362 82.1474 171.176 82.1474Z" fill="#FFD166"/>
<path d="M162.005 82.1474C161.405 82.1474 160.909 82.0393 160.516 81.8231C160.122 81.5971 159.828 81.2629 159.631 80.8206C159.444 80.3784 159.351 79.828 159.351 79.1695V74.7911H161.194V79.199C161.194 79.5332 161.238 79.8133 161.326 80.0393C161.425 80.2654 161.567 80.4324 161.754 80.5405C161.95 80.6487 162.196 80.7027 162.491 80.7027C162.825 80.7027 163.115 80.629 163.361 80.4816C163.616 80.3243 163.813 80.1081 163.951 79.8329C164.098 79.5479 164.172 79.2187 164.172 78.8452V74.7911H166.014V82H164.216V80.4963H164.422C164.216 81.027 163.901 81.4349 163.479 81.7199C163.066 82.0049 162.575 82.1474 162.005 82.1474Z" fill="#FFD166"/>
<path d="M154.099 82.1474C153.696 82.1474 153.303 82.113 152.919 82.0442C152.546 81.9754 152.202 81.882 151.887 81.7641C151.573 81.6363 151.298 81.4791 151.062 81.2924L151.534 80.0835C151.779 80.2407 152.045 80.3783 152.33 80.4963C152.615 80.6142 152.909 80.7027 153.214 80.7616C153.519 80.8206 153.819 80.8501 154.113 80.8501C154.585 80.8501 154.934 80.7715 155.16 80.6142C155.396 80.4471 155.514 80.2309 155.514 79.9656C155.514 79.7395 155.435 79.5675 155.278 79.4496C155.131 79.3218 154.905 79.2284 154.6 79.1695L153.126 78.8894C152.516 78.7714 152.049 78.5503 151.725 78.226C151.411 77.8918 151.253 77.4643 151.253 76.9434C151.253 76.4716 151.381 76.0638 151.637 75.7198C151.902 75.3758 152.266 75.1105 152.728 74.9237C153.19 74.737 153.72 74.6436 154.32 74.6436C154.664 74.6436 154.998 74.678 155.322 74.7468C155.647 74.8058 155.951 74.8991 156.236 75.0269C156.531 75.1449 156.787 75.3021 157.003 75.4987L156.502 76.7075C156.315 76.5503 156.099 76.4176 155.853 76.3095C155.607 76.1915 155.352 76.1031 155.086 76.0441C154.831 75.9753 154.58 75.9409 154.335 75.9409C153.853 75.9409 153.494 76.0245 153.258 76.1915C153.032 76.3586 152.919 76.5798 152.919 76.8549C152.919 77.0613 152.988 77.2333 153.126 77.3709C153.263 77.5085 153.475 77.6019 153.76 77.651L155.234 77.9311C155.873 78.0491 156.354 78.2653 156.679 78.5798C157.013 78.8943 157.18 79.3169 157.18 79.8476C157.18 80.3292 157.052 80.742 156.796 81.086C156.541 81.4299 156.182 81.6953 155.72 81.882C155.258 82.059 154.718 82.1474 154.099 82.1474Z" fill="#FFD166"/>
<path d="M146.285 82.1474C145.47 82.1474 144.767 81.9951 144.177 81.6904C143.588 81.3857 143.131 80.9533 142.806 80.3931C142.492 79.8329 142.334 79.1695 142.334 78.4029C142.334 77.6559 142.487 77.0024 142.791 76.4422C143.106 75.882 143.534 75.4446 144.074 75.1301C144.624 74.8058 145.249 74.6436 145.946 74.6436C146.634 74.6436 147.224 74.791 147.715 75.0859C148.207 75.3807 148.585 75.7984 148.851 76.339C149.126 76.8795 149.263 77.5233 149.263 78.2702V78.8157H143.823V77.7542H147.966L147.73 77.9754C147.73 77.307 147.583 76.796 147.288 76.4422C146.993 76.0785 146.57 75.8967 146.02 75.8967C145.607 75.8967 145.253 75.995 144.959 76.1915C144.674 76.3783 144.452 76.6486 144.295 77.0024C144.148 77.3464 144.074 77.7591 144.074 78.2407V78.3439C144.074 78.8845 144.158 79.3316 144.325 79.6855C144.492 80.0393 144.742 80.3046 145.077 80.4815C145.411 80.6584 145.823 80.7469 146.315 80.7469C146.718 80.7469 147.121 80.6879 147.524 80.57C147.927 80.4422 148.295 80.2457 148.629 79.9803L149.145 81.2186C148.801 81.5037 148.369 81.7297 147.848 81.8968C147.327 82.0639 146.806 82.1474 146.285 82.1474Z" fill="#FFD166"/>
<path d="M132.253 82V71.6068H136.764C137.904 71.6068 138.784 71.8819 139.403 72.4323C140.022 72.9729 140.332 73.7345 140.332 74.7174C140.332 75.3562 140.189 75.9066 139.904 76.3685C139.629 76.8304 139.226 77.1842 138.695 77.4299C138.165 77.6756 137.521 77.7985 136.764 77.7985L136.897 77.5773H137.383C137.786 77.5773 138.135 77.6756 138.43 77.8722C138.735 78.0688 139 78.3783 139.226 78.801L140.966 82H138.887L137.088 78.683C136.97 78.4668 136.838 78.2997 136.69 78.1818C136.543 78.054 136.376 77.9656 136.189 77.9164C136.002 77.8673 135.786 77.8427 135.54 77.8427H134.14V82H132.253ZM134.14 76.4422H136.44C137.118 76.4422 137.629 76.3046 137.973 76.0294C138.327 75.7444 138.504 75.3218 138.504 74.7616C138.504 74.2112 138.327 73.7984 137.973 73.5232C137.629 73.2382 137.118 73.0957 136.44 73.0957H134.14V76.4422Z" fill="#FFD166"/>
<path d="M122.618 84.6536V71.6068H124.46V84.6536H122.618Z" fill="#FFD166"/>
<path d="M108.296 82V74.791H110.094V76.2358H109.932C110.148 75.7149 110.482 75.3218 110.935 75.0564C111.396 74.7812 111.917 74.6436 112.497 74.6436C113.077 74.6436 113.554 74.7517 113.927 74.9679C114.301 75.1842 114.581 75.5134 114.767 75.9557C114.954 76.3881 115.048 76.9385 115.048 77.6068V82H113.205V77.6953C113.205 77.3218 113.156 77.0171 113.057 76.7812C112.969 76.5454 112.826 76.3734 112.63 76.2653C112.443 76.1473 112.202 76.0884 111.907 76.0884C111.554 76.0884 111.244 76.167 110.979 76.3242C110.713 76.4716 110.507 76.6879 110.36 76.9729C110.212 77.2481 110.138 77.5724 110.138 77.9459V82H108.296Z" fill="#FFD166"/>
<path d="M102.352 82.1474C101.605 82.1474 100.956 81.9951 100.406 81.6904C99.8556 81.3857 99.4281 80.9533 99.1234 80.3931C98.8187 79.823 98.6664 79.1547 98.6664 78.3881C98.6664 77.6215 98.8187 76.9581 99.1234 76.3979C99.4281 75.8377 99.8556 75.4053 100.406 75.1006C100.956 74.796 101.605 74.6436 102.352 74.6436C103.099 74.6436 103.748 74.796 104.298 75.1006C104.848 75.4053 105.276 75.8377 105.58 76.3979C105.885 76.9581 106.037 77.6215 106.037 78.3881C106.037 79.1547 105.885 79.823 105.58 80.3931C105.276 80.9533 104.848 81.3857 104.298 81.6904C103.748 81.9951 103.099 82.1474 102.352 82.1474ZM102.352 80.7469C102.902 80.7469 103.345 80.5503 103.679 80.1572C104.013 79.7542 104.18 79.1646 104.18 78.3881C104.18 77.6019 104.013 77.0171 103.679 76.6338C103.345 76.2407 102.902 76.0441 102.352 76.0441C101.802 76.0441 101.359 76.2407 101.025 76.6338C100.691 77.0171 100.524 77.6019 100.524 78.3881C100.524 79.1646 100.691 79.7542 101.025 80.1572C101.359 80.5503 101.802 80.7469 102.352 80.7469Z" fill="#FFD166"/>
<path d="M94.4519 73.2431V71.4446H96.5158V73.2431H94.4519ZM94.5698 82V74.7911H96.4126V82H94.5698Z" fill="#FFD166"/>
<path d="M91.477 82.1474C90.5138 82.1474 89.7964 81.9066 89.3246 81.425C88.8528 80.9435 88.617 80.2407 88.617 79.3169V76.1768H87.2312V74.791H88.617V72.6387H90.4597V74.791H92.6416V76.1768H90.4597V79.2137C90.4597 79.6855 90.5629 80.0393 90.7693 80.2751C90.9757 80.511 91.3099 80.629 91.7718 80.629C91.9094 80.629 92.0519 80.6142 92.1993 80.5847C92.3468 80.5454 92.4991 80.5061 92.6563 80.4668L92.9364 81.8231C92.7595 81.9214 92.5335 82 92.2583 82.0589C91.9929 82.1179 91.7325 82.1474 91.477 82.1474Z" fill="#FFD166"/>
<path d="M83.787 82.1474C83.0303 82.1474 82.3718 81.9951 81.8116 81.6904C81.2514 81.3759 80.8189 80.9336 80.5143 80.3636C80.2096 79.7936 80.0573 79.1252 80.0573 78.3587C80.0573 77.5921 80.2096 76.9336 80.5143 76.3832C80.8189 75.823 81.2514 75.3955 81.8116 75.1006C82.3718 74.796 83.0303 74.6436 83.787 74.6436C84.249 74.6436 84.706 74.7173 85.1581 74.8647C85.6102 75.0122 85.9836 75.2186 86.2785 75.4839L85.733 76.7665C85.4775 76.5404 85.1875 76.3685 84.8632 76.2505C84.5487 76.1326 84.244 76.0736 83.9492 76.0736C83.3104 76.0736 82.814 76.2751 82.4602 76.678C82.1163 77.0712 81.9443 77.6363 81.9443 78.3734C81.9443 79.1007 82.1163 79.6756 82.4602 80.0982C82.814 80.511 83.3104 80.7174 83.9492 80.7174C84.2342 80.7174 84.5389 80.6584 84.8632 80.5405C85.1875 80.4226 85.4775 80.2457 85.733 80.0098L86.2785 81.3071C85.9836 81.5626 85.6052 81.769 85.1433 81.9263C84.6912 82.0737 84.2391 82.1474 83.787 82.1474Z" fill="#FFD166"/>
<path d="M67.8763 82L72.5791 71.6068H74.127L78.8298 82H76.9133L75.6602 79.0811L76.4563 79.597H70.2351L71.0312 79.0811L69.7928 82H67.8763ZM73.331 73.6559L71.2671 78.5651L70.8838 78.0933H75.8077L75.4391 78.5651L73.3605 73.6559H73.331Z" fill="#FFD166"/>
<path d="M59.3613 84.6536V71.6068H61.2041V84.6536H59.3613Z" fill="#FFD166"/>
<path d="M46.5519 84.6536L48.0556 81.3366V82.1032L44.886 74.7911H46.8467L49.0875 80.3784H48.6452L50.9303 74.7911H52.7878L48.4536 84.6536H46.5519Z" fill="#FFD166"/>
<path d="M42.6952 82.1474C41.7321 82.1474 41.0146 81.9066 40.5429 81.425C40.0711 80.9435 39.8352 80.2407 39.8352 79.3169V76.1768H38.4495V74.791H39.8352V72.6387H41.678V74.791H43.8599V76.1768H41.678V79.2137C41.678 79.6855 41.7812 80.0393 41.9876 80.2751C42.194 80.511 42.5281 80.629 42.9901 80.629C43.1277 80.629 43.2702 80.6142 43.4176 80.5847C43.565 80.5454 43.7173 80.5061 43.8746 80.4668L44.1547 81.8231C43.9778 81.9214 43.7517 82 43.4766 82.0589C43.2112 82.1179 42.9508 82.1474 42.6952 82.1474Z" fill="#FFD166"/>
<path d="M34.7805 73.2431V71.4446H36.8444V73.2431H34.7805ZM34.8985 82V74.7911H36.7412V82H34.8985Z" fill="#FFD166"/>
<path d="M28.3882 82V74.7911H30.1867V76.5307H30.0393C30.1769 75.941 30.4472 75.4938 30.8501 75.1891C31.2531 74.8746 31.7887 74.6928 32.457 74.6437L33.0172 74.5994L33.1352 76.1621L32.0737 76.2653C31.4742 76.3243 31.0221 76.511 30.7175 76.8255C30.4128 77.1302 30.2604 77.5626 30.2604 78.1228V82H28.3882Z" fill="#FFD166"/>
<path d="M21.9625 82.1474C21.4416 82.1474 20.9747 82.0491 20.562 81.8526C20.159 81.6462 19.8396 81.371 19.6037 81.027C19.3777 80.683 19.2646 80.2948 19.2646 79.8624C19.2646 79.3316 19.4022 78.9139 19.6774 78.6093C19.9526 78.2948 20.3998 78.0687 21.019 77.9311C21.6381 77.7935 22.4686 77.7247 23.5104 77.7247H24.2475V78.7862H23.5252C23.0632 78.7862 22.675 78.8058 22.3605 78.8451C22.046 78.8746 21.7905 78.9287 21.5939 79.0073C21.4072 79.0761 21.2696 79.1744 21.1811 79.3022C21.1025 79.4299 21.0632 79.5872 21.0632 79.7739C21.0632 80.0982 21.1762 80.3636 21.4023 80.57C21.6283 80.7764 21.9428 80.8796 22.3458 80.8796C22.6701 80.8796 22.9551 80.8059 23.2008 80.6584C23.4564 80.5012 23.6578 80.2899 23.8053 80.0245C23.9527 79.7592 24.0264 79.4545 24.0264 79.1105V77.4152C24.0264 76.9237 23.9183 76.5699 23.7021 76.3537C23.4858 76.1375 23.1222 76.0294 22.6111 76.0294C22.2082 76.0294 21.7954 76.0933 21.3728 76.221C20.9502 76.339 20.5227 76.5257 20.0902 76.7812L19.5595 75.5281C19.815 75.3512 20.1148 75.1989 20.4588 75.0711C20.8126 74.9335 21.1811 74.8303 21.5644 74.7616C21.9576 74.6829 22.3261 74.6436 22.6701 74.6436C23.3777 74.6436 23.9576 74.7517 24.4097 74.9679C24.8716 75.1842 25.2156 75.5134 25.4416 75.9557C25.6677 76.3881 25.7807 76.9483 25.7807 77.6363V82H24.0559V80.4668H24.1738C24.105 80.8108 23.9674 81.1105 23.761 81.3661C23.5645 81.6118 23.3138 81.8034 23.0092 81.941C22.7045 82.0786 22.3556 82.1474 21.9625 82.1474Z" fill="#FFD166"/>
<path d="M16.6502 82.1474C15.7952 82.1474 15.1613 81.9165 14.7485 81.4546C14.3455 80.9828 14.144 80.2948 14.144 79.3906V71.6068H15.9868V79.3022C15.9868 79.5872 16.0261 79.8329 16.1048 80.0393C16.1932 80.2359 16.321 80.3833 16.4881 80.4816C16.6551 80.5798 16.8615 80.629 17.1072 80.629C17.2153 80.629 17.3234 80.6241 17.4316 80.6142C17.5397 80.6044 17.6429 80.5848 17.7411 80.5553L17.7117 82.0148C17.5348 82.0541 17.3578 82.0836 17.1809 82.1032C17.0139 82.1327 16.837 82.1474 16.6502 82.1474Z" fill="#FFD166"/>
<path d="M8.41353 82.1474C7.33244 82.1474 6.40368 81.9312 5.62725 81.4987C4.86066 81.0565 4.27097 80.4373 3.85819 79.6412C3.4454 78.8353 3.23901 77.8869 3.23901 76.796C3.23901 75.705 3.4454 74.7615 3.85819 73.9655C4.27097 73.1694 4.86066 72.5551 5.62725 72.1227C6.40368 71.6804 7.33244 71.4593 8.41353 71.4593C9.11133 71.4593 9.76982 71.5674 10.389 71.7836C11.018 71.9998 11.534 72.3094 11.9369 72.7124L11.3177 74.2161C10.8755 73.8426 10.4234 73.5723 9.96146 73.4053C9.49954 73.2284 9.00322 73.1399 8.4725 73.1399C7.42089 73.1399 6.6199 73.4593 6.06952 74.0981C5.51914 74.7271 5.24396 75.6264 5.24396 76.796C5.24396 77.9655 5.51914 78.8697 6.06952 79.5085C6.6199 80.1474 7.42089 80.4668 8.4725 80.4668C9.00322 80.4668 9.49954 80.3832 9.96146 80.2162C10.4234 80.0393 10.8755 79.7641 11.3177 79.3906L11.9369 80.8943C11.534 81.2874 11.018 81.597 10.389 81.8231C9.76982 82.0393 9.11133 82.1474 8.41353 82.1474Z" fill="#FFD166"/>
<path d="M165.694 60.36C161.95 60.36 158.542 59.64 155.47 58.2C152.446 56.712 149.83 54.744 147.622 52.296C145.462 49.848 143.782 47.088 142.582 44.016C141.382 40.896 140.782 37.704 140.782 34.44C140.782 31.032 141.406 27.792 142.654 24.72C143.95 21.6 145.702 18.84 147.91 16.44C150.166 13.992 152.806 12.072 155.83 10.68C158.902 9.23999 162.262 8.51999 165.91 8.51999C169.606 8.51999 172.966 9.26399 175.99 10.752C179.062 12.24 181.678 14.232 183.838 16.728C185.998 19.224 187.678 22.008 188.878 25.08C190.078 28.152 190.678 31.32 190.678 34.584C190.678 37.944 190.054 41.184 188.806 44.304C187.558 47.376 185.806 50.136 183.55 52.584C181.342 54.984 178.702 56.88 175.63 58.272C172.606 59.664 169.294 60.36 165.694 60.36ZM165.766 51.576C168.166 51.576 170.302 51.096 172.174 50.136C174.046 49.128 175.606 47.808 176.854 46.176C178.102 44.496 179.038 42.648 179.662 40.632C180.334 38.568 180.67 36.504 180.67 34.44C180.67 32.232 180.31 30.096 179.59 28.032C178.918 25.968 177.934 24.144 176.638 22.56C175.39 20.976 173.83 19.704 171.958 18.744C170.134 17.784 168.07 17.304 165.766 17.304C163.318 17.304 161.158 17.808 159.286 18.816C157.462 19.776 155.926 21.096 154.678 22.776C153.43 24.408 152.47 26.232 151.798 28.248C151.174 30.264 150.862 32.328 150.862 34.44C150.862 36.648 151.198 38.784 151.87 40.848C152.542 42.912 153.502 44.736 154.75 46.32C156.046 47.904 157.606 49.176 159.43 50.136C161.302 51.096 163.414 51.576 165.766 51.576ZM164.758 41.064H174.118L190.966 60H181.606L164.758 41.064Z" fill="#8FAD77"/>
<path d="M121.131 57.5V19.772H130.779V57.5H121.131ZM121.131 25.2719V19.772H130.779V25.2719H121.131Z" fill="#8FAD77"/>
<path d="M102.003 60V9H107.003V60H102.003Z" fill="#B6BBB6"/>
<path d="M66.0757 60.36C62.7157 60.36 59.5477 59.736 56.5717 58.488C53.5957 57.192 50.9797 55.392 48.7237 53.088C46.4677 50.736 44.6917 47.976 43.3957 44.808C42.1477 41.592 41.5237 38.016 41.5237 34.08C41.5237 30.528 42.1717 27.216 43.4677 24.144C44.7637 21.072 46.5637 18.36 48.8677 16.008C51.1717 13.656 53.8597 11.832 56.9317 10.536C60.0517 9.19199 63.4117 8.51999 67.0117 8.51999C71.7157 8.51999 75.8677 9.52799 79.4677 11.544C83.0677 13.56 85.7317 16.272 87.4597 19.68L78.6757 26.304C77.5237 24.048 75.8437 22.272 73.6357 20.976C71.4757 19.68 69.1237 19.032 66.5797 19.032C64.6597 19.032 62.8837 19.44 61.2517 20.256C59.6677 21.024 58.2757 22.128 57.0757 23.568C55.9237 24.96 55.0357 26.592 54.4117 28.464C53.7877 30.336 53.4757 32.352 53.4757 34.512C53.4757 36.72 53.8117 38.76 54.4837 40.632C55.1557 42.504 56.0917 44.136 57.2917 45.528C58.4917 46.872 59.9077 47.928 61.5397 48.696C63.2197 49.464 65.0677 49.848 67.0837 49.848C69.5317 49.848 71.8597 49.248 74.0677 48.048C76.3237 46.8 78.3877 44.976 80.2597 42.576V54.24C76.1797 58.32 71.4517 60.36 66.0757 60.36ZM79.5397 41.856H69.6037V33.288H89.3317V60H79.5397V41.856Z" fill="#5E7F9B"/>
<path d="M0 60V8.88H11.808V30.912L30.528 8.88H43.776L24.624 31.704L45.072 60H31.536L17.136 39.48L11.808 44.952V60H0Z" fill="#5E7F9B"/>
<circle cx="126.503" cy="5.5" r="5.5" fill="#8FAD77"/>
</svg>
